<svg width="28" height="28" viewBox="0 0 28 28" fill="none" xmlns="http://www.w3.org/2000/svg">
<path d="M23.6926 3.26378H22.3307V1.90185C22.3307 1.08469 21.7859 0.539917 20.9688 0.539917C20.1516 0.539917 19.6068 1.08469 19.6068 1.90185V3.26378H8.71137V1.90185C8.71137 1.08469 8.1666 0.539917 7.34944 0.539917C6.53228 0.539917 5.98751 1.08469 5.98751 1.90185V3.26378H4.62558C2.31029 3.26378 0.53978 5.03429 0.53978 7.34958V8.71151H27.7784V7.34958C27.7784 5.03429 26.0079 3.26378 23.6926 3.26378ZM0.53978 23.6928C0.53978 26.008 2.31029 27.7786 4.62558 27.7786H23.6926C26.0079 27.7786 27.7784 26.008 27.7784 23.6928V11.4354H0.53978V23.6928ZM20.9688 14.1592C21.7859 14.1592 22.3307 14.704 22.3307 15.5212C22.3307 16.3383 21.7859 16.8831 20.9688 16.8831C20.1516 16.8831 19.6068 16.3383 19.6068 15.5212C19.6068 14.704 20.1516 14.1592 20.9688 14.1592ZM20.9688 19.607C21.7859 19.607 22.3307 20.1517 22.3307 20.9689C22.3307 21.7861 21.7859 22.3308 20.9688 22.3308C20.1516 22.3308 19.6068 21.7861 19.6068 20.9689C19.6068 20.1517 20.1516 19.607 20.9688 19.607ZM14.1591 14.1592C14.9763 14.1592 15.521 14.704 15.521 15.5212C15.521 16.3383 14.9763 16.8831 14.1591 16.8831C13.3419 16.8831 12.7972 16.3383 12.7972 15.5212C12.7972 14.704 13.3419 14.1592 14.1591 14.1592ZM14.1591 19.607C14.9763 19.607 15.521 20.1517 15.521 20.9689C15.521 21.7861 14.9763 22.3308 14.1591 22.3308C13.3419 22.3308 12.7972 21.7861 12.7972 20.9689C12.7972 20.1517 13.3419 19.607 14.1591 19.607ZM7.34944 14.1592C8.1666 14.1592 8.71137 14.704 8.71137 15.5212C8.71137 16.3383 8.1666 16.8831 7.34944 16.8831C6.53228 16.8831 5.98751 16.3383 5.98751 15.5212C5.98751 14.704 6.53228 14.1592 7.34944 14.1592ZM7.34944 19.607C8.1666 19.607 8.71137 20.1517 8.71137 20.9689C8.71137 21.7861 8.1666 22.3308 7.34944 22.3308C6.53228 22.3308 5.98751 21.7861 5.98751 20.9689C5.98751 20.1517 6.53228 19.607 7.34944 19.607Z" fill="white"/>
</svg>
