<svg width="29" height="29" viewBox="0 0 29 29" fill="none" xmlns="http://www.w3.org/2000/svg">
<g clip-path="url(#clip0_147_901)">
<path d="M13.2344 9.72483L14.9891 7.97006C15.3732 7.58599 15.8317 7.28382 16.3383 7.0808C16.845 6.87779 17.3899 6.7779 17.942 6.78685C18.4941 6.79579 19.0425 6.91339 19.556 7.13293C20.0695 7.35247 20.538 7.66966 20.9347 8.06638C21.3314 8.46309 21.6486 8.93157 21.8682 9.44507C22.0877 9.95856 22.2053 10.507 22.2142 11.0591C22.2232 11.6112 22.1233 12.1561 21.9203 12.6628C21.7173 13.1694 21.4151 13.6279 21.031 14.012L19.2763 15.7667M15.7667 19.2763L14.0119 21.0311C13.6279 21.4151 13.1694 21.7173 12.6628 21.9203C12.1561 22.1233 11.6112 22.2232 11.0591 22.2143C9.94408 22.1962 8.86756 21.7359 8.06636 20.9347C7.26515 20.1335 6.80489 19.057 6.78683 17.942C6.76877 16.827 7.19438 15.7648 7.97004 14.9892L9.72481 13.2344" stroke="#FE3D3C" stroke-width="2" stroke-linecap="round" stroke-linejoin="round"/>
<path d="M12.084 16.9173L16.9175 12.0838" stroke="#FE3D3C" stroke-width="2" stroke-linecap="round" stroke-linejoin="round"/>
</g>
<defs>
<clipPath id="clip0_147_901">
<rect width="20.5069" height="20.5069" fill="white" transform="translate(0 14.5005) rotate(-45)"/>
</clipPath>
</defs>
</svg>
