<svg width="13" height="13" viewBox="0 0 13 13" fill="none" xmlns="http://www.w3.org/2000/svg">
<g clip-path="url(#clip0_48_599)">
<path d="M11.375 5.41667C11.375 9.20834 6.5 12.4583 6.5 12.4583C6.5 12.4583 1.625 9.20834 1.625 5.41667C1.625 4.12374 2.13861 2.88377 3.05285 1.96953C3.96709 1.05529 5.20707 0.541672 6.5 0.541672C7.79293 0.541672 9.03291 1.05529 9.94715 1.96953C10.8614 2.88377 11.375 4.12374 11.375 5.41667Z" stroke="#6F7480" stroke-width="1.2" stroke-linecap="round" stroke-linejoin="round"/>
<path d="M6.5 7.04167C7.39746 7.04167 8.125 6.31413 8.125 5.41667C8.125 4.51921 7.39746 3.79167 6.5 3.79167C5.60254 3.79167 4.875 4.51921 4.875 5.41667C4.875 6.31413 5.60254 7.04167 6.5 7.04167Z" stroke="#6F7480" stroke-width="1.2" stroke-linecap="round" stroke-linejoin="round"/>
</g>
<defs>
<clipPath id="clip0_48_599">
<rect width="13" height="13" fill="white"/>
</clipPath>
</defs>
</svg>
