<svg width="13" height="13" viewBox="0 0 13 13" fill="none" xmlns="http://www.w3.org/2000/svg">
<g clip-path="url(#clip0_48_604)">
<path d="M3.24984 11.9167V12.5167V11.9167ZM2.1665 10.8334H1.5665H2.1665ZM2.1665 2.16669H1.5665H2.1665ZM7.58317 12.5167H3.24984V11.3167H7.58317V12.5167ZM3.24984 12.5167C2.80339 12.5167 2.37523 12.3393 2.05954 12.0237L2.90807 11.1751C2.99871 11.2658 3.12165 11.3167 3.24984 11.3167V12.5167ZM2.05954 12.0237C1.74385 11.708 1.5665 11.2798 1.5665 10.8334H2.7665C2.7665 10.9615 2.81743 11.0845 2.90807 11.1751L2.05954 12.0237ZM1.5665 10.8334V2.16669H2.7665V10.8334H1.5665ZM1.5665 2.16669C1.5665 1.72024 1.74385 1.29208 2.05954 0.976391L2.90807 1.82492C2.81743 1.91556 2.7665 2.0385 2.7665 2.16669H1.5665ZM2.05954 0.976391C2.37523 0.660706 2.80339 0.483353 3.24984 0.483353V1.68335C3.12165 1.68335 2.99871 1.73428 2.90807 1.82492L2.05954 0.976391ZM3.24984 0.483353H9.74984V1.68335H3.24984V0.483353ZM9.74984 0.483353C10.1963 0.483353 10.6244 0.660706 10.9401 0.976391L10.0916 1.82492C10.001 1.73428 9.87802 1.68335 9.74984 1.68335V0.483353ZM10.9401 0.976391C11.2558 1.29208 11.4332 1.72024 11.4332 2.16669H10.2332C10.2332 2.0385 10.1822 1.91556 10.0916 1.82492L10.9401 0.976391ZM11.4332 2.16669V8.66669H10.2332V2.16669H11.4332ZM11.4332 8.66669V10.9167H10.2332V8.66669H11.4332ZM9.83317 12.5167H7.58317V11.3167H9.83317V12.5167ZM11.4332 10.9167C11.4332 11.8003 10.7168 12.5167 9.83317 12.5167V11.3167C10.0541 11.3167 10.2332 11.1376 10.2332 10.9167H11.4332Z" fill="#6F7480"/>
<path d="M8.66683 5.95837H4.3335" stroke="#6F7480" stroke-width="1.2" stroke-linecap="round" stroke-linejoin="round"/>
<path d="M8.66683 3.79169H4.3335" stroke="#6F7480" stroke-width="1.2" stroke-linecap="round" stroke-linejoin="round"/>
</g>
<defs>
<clipPath id="clip0_48_604">
<rect width="13" height="13" fill="white" transform="matrix(1 0 0 -1 0 13)"/>
</clipPath>
</defs>
</svg>
