<svg width="28" height="28" viewBox="0 0 28 28" fill="none" xmlns="http://www.w3.org/2000/svg">
<path d="M24.3281 0.539917H3.89913C2.99611 0.539917 2.13008 0.898639 1.49155 1.53717C0.853019 2.1757 0.494297 3.04173 0.494297 3.94475L0.494297 24.3737C0.495142 25.2765 0.854136 26.142 1.49248 26.7804C2.13083 27.4187 2.99637 27.7777 3.89913 27.7786H14.1136V18.4153H10.7088V14.1592H14.1136V10.7544C14.1136 9.39988 14.6517 8.10083 15.6095 7.14304C16.5673 6.18524 17.8663 5.64716 19.2209 5.64716H22.6257V9.9032H20.9233C19.9838 9.9032 19.2209 9.81488 19.2209 10.7544V14.1592H23.4769L21.7745 18.4153H19.2209V27.7786H24.3281C25.2308 27.7776 26.0963 27.4185 26.7346 26.7802C27.3729 26.1419 27.7319 25.2764 27.7329 24.3737V3.94475C27.7321 3.04199 27.3731 2.17645 26.7347 1.5381C26.0964 0.899756 25.2309 0.540762 24.3281 0.539917Z" fill="white"/>
</svg>
