<svg width="32" height="32" viewBox="0 0 32 32" fill="none" xmlns="http://www.w3.org/2000/svg">
<path d="M13.2335 17.2627C13.7946 18.0129 14.5105 18.6336 15.3326 19.0827C16.1547 19.5319 17.0638 19.799 17.9982 19.8659C18.9327 19.9328 19.8705 19.798 20.7483 19.4706C21.626 19.1432 22.4231 18.6308 23.0854 17.9683L27.0052 14.0484C28.1953 12.8163 28.8538 11.166 28.8389 9.45302C28.824 7.74006 28.1369 6.10148 26.9256 4.89019C25.7144 3.6789 24.0758 2.99182 22.3628 2.97693C20.6499 2.96205 18.9996 3.62055 17.7674 4.8106L15.52 7.04492" stroke="#FE3D3C" stroke-width="2.61324" stroke-linecap="round" stroke-linejoin="round"/>
<path d="M18.4599 14.6495C17.8988 13.8993 17.1829 13.2786 16.3608 12.8294C15.5387 12.3803 14.6296 12.1132 13.6951 12.0462C12.7607 11.9793 11.8228 12.1141 10.9451 12.4416C10.0674 12.769 9.27032 13.2813 8.60801 13.9439L4.68815 17.8637C3.49809 19.0959 2.83959 20.7462 2.85448 22.4591C2.86936 24.1721 3.55644 25.8107 4.76773 27.022C5.97902 28.2333 7.61761 28.9203 9.33056 28.9352C11.0435 28.9501 12.6938 28.2916 13.926 27.1015L16.1603 24.8672" stroke="#FE3D3C" stroke-width="2.61324" stroke-linecap="round" stroke-linejoin="round"/>
</svg>
