<svg width="31" height="25" viewBox="0 0 31 25" fill="none" xmlns="http://www.w3.org/2000/svg">
<path d="M27.5833 0.0531006H3.3712C1.70661 0.0531006 0.359813 1.41503 0.359813 3.07962L0.344681 21.2387C0.344681 22.9033 1.70661 24.2652 3.3712 24.2652H27.5833C29.2479 24.2652 30.6098 22.9033 30.6098 21.2387V3.07962C30.6098 1.41503 29.2479 0.0531006 27.5833 0.0531006ZM26.978 6.48445L16.2793 13.173C15.795 13.4757 15.1595 13.4757 14.6752 13.173L3.9765 6.48445C3.59818 6.24232 3.3712 5.83375 3.3712 5.3949C3.3712 4.38102 4.47587 3.77571 5.33843 4.30535L15.4773 10.6459L25.6161 4.30535C26.4786 3.77571 27.5833 4.38102 27.5833 5.3949C27.5833 5.83375 27.3563 6.24232 26.978 6.48445Z" fill="white"/>
</svg>
