<svg width="31" height="28" viewBox="0 0 31 28" fill="none" xmlns="http://www.w3.org/2000/svg">
<path d="M26.2576 0H5.25757C4.06409 0 2.9195 0.465788 2.07559 1.2949C1.23167 2.124 0.757568 3.24852 0.757568 4.42105V26.5263C0.758026 26.7874 0.829102 27.0438 0.963519 27.269C1.09794 27.4943 1.29087 27.6805 1.52257 27.8084C1.74675 27.9332 1.99989 27.9992 2.25757 28C2.52679 27.9999 2.79103 27.9287 3.02257 27.7937L9.75757 23.7853C10.0065 23.6397 10.2931 23.568 10.5826 23.5789H26.2576C27.451 23.5789 28.5956 23.1132 29.4395 22.2841C30.2835 21.4549 30.7576 20.3304 30.7576 19.1579V4.42105C30.7576 3.24852 30.2835 2.124 29.4395 1.2949C28.5956 0.465788 27.451 0 26.2576 0ZM9.75757 13.2632C9.4609 13.2632 9.17089 13.1767 8.92421 13.0148C8.67754 12.8529 8.48528 12.6227 8.37175 12.3534C8.25822 12.0841 8.22851 11.7878 8.28639 11.502C8.34427 11.2161 8.48713 10.9535 8.69691 10.7474C8.90669 10.5413 9.17396 10.401 9.46493 10.3441C9.7559 10.2872 10.0575 10.3164 10.3316 10.428C10.6057 10.5395 10.84 10.7284 11.0048 10.9707C11.1696 11.2131 11.2576 11.498 11.2576 11.7895C11.2576 12.1803 11.0995 12.5552 10.8182 12.8315C10.5369 13.1079 10.1554 13.2632 9.75757 13.2632ZM15.7576 13.2632C15.4609 13.2632 15.1709 13.1767 14.9242 13.0148C14.6775 12.8529 14.4853 12.6227 14.3717 12.3534C14.2582 12.0841 14.2285 11.7878 14.2864 11.502C14.3443 11.2161 14.4871 10.9535 14.6969 10.7474C14.9067 10.5413 15.174 10.401 15.4649 10.3441C15.7559 10.2872 16.0575 10.3164 16.3316 10.428C16.6057 10.5395 16.84 10.7284 17.0048 10.9707C17.1696 11.2131 17.2576 11.498 17.2576 11.7895C17.2576 12.1803 17.0995 12.5552 16.8182 12.8315C16.5369 13.1079 16.1554 13.2632 15.7576 13.2632ZM21.7576 13.2632C21.4609 13.2632 21.1709 13.1767 20.9242 13.0148C20.6775 12.8529 20.4853 12.6227 20.3717 12.3534C20.2582 12.0841 20.2285 11.7878 20.2864 11.502C20.3443 11.2161 20.4871 10.9535 20.6969 10.7474C20.9067 10.5413 21.174 10.401 21.4649 10.3441C21.7559 10.2872 22.0575 10.3164 22.3316 10.428C22.6057 10.5395 22.84 10.7284 23.0048 10.9707C23.1696 11.2131 23.2576 11.498 23.2576 11.7895C23.2576 12.1803 23.0995 12.5552 22.8182 12.8315C22.5369 13.1079 22.1554 13.2632 21.7576 13.2632Z" fill="white"/>
</svg>
