<?xml version="1.0" encoding="UTF-8"?>
<svg width="700pt" height="700pt" version="1.1" viewBox="0 0 700 700" xmlns="http://www.w3.org/2000/svg" xmlns:xlink="http://www.w3.org/1999/xlink">
 <g>
  <path d="m629.55 271.94c-0.85547 3.5742-2 7.0781-3.4141 10.469-3.1367 6.1602-6.8867 12.039-10.137 18.145-1.1094 1.6445-1.5508 3.6445-1.2305 5.6016 8.2891 20.777 3.5859 39.199-9.1836 56.617-1.8281 1.7773-2.3438 4.5078-1.2891 6.832 7.7852 18.984 3.4727 36.457-7.2812 52.863-2.8359 3.3633-3.8242 7.9141-2.6328 12.152 5.1523 21.223 2.0156 41.383-14 58.184-7.5273 7.793-17.328 13.008-28 14.895-9.4648 1.8828-19.078 2.9102-28.727 3.082h-212.8c-12.855-0.27734-25.348-4.3477-35.895-11.707-3.0039-2.3672-6.875-3.3438-10.641-2.6875 0 3.5273-0.39062 6.8867-0.83984 10.246v0.003906c-0.52344 5.2305-2.8672 10.109-6.625 13.785-3.7578 3.6719-8.6875 5.9102-13.926 6.3164-1.625 0.089844-3.25 0.089844-4.875 0h-141.62c-6.6055 0.54297-13.137-1.668-18.047-6.1133-4.9141-4.4453-7.7656-10.727-7.8828-17.348v-221.48c-0.45703-7.1133 2.1445-14.078 7.1523-19.148 5.0078-5.0703 11.941-7.7617 19.055-7.3984h159.88 0.003906c3.7734 0.47266 7.5117 1.1836 11.199 2.1289 1.8828 0.5 3.8867 0.26172 5.5977-0.67188 5.8555-5.6758 11.301-11.758 16.297-18.199 21.742-30.324 41.172-62.242 58.129-95.48 2.9922-5.4648 4.4453-11.637 4.1992-17.863-0.72656-18.426-0.72656-36.902-1.3984-55.328-0.40625-5.8984 0.90234-11.789 3.7773-16.957 2.8711-5.168 7.1797-9.3945 12.406-12.164 9.9883-5.7344 21.426-8.4492 32.926-7.8125 11.5 0.63672 22.57 4.5977 31.867 11.398 4.4961 4.0703 7.918 9.1875 9.9648 14.895 6.8867 16.801 13.441 33.992 19.266 51.297 5.9414 18.82 6.7539 38.887 2.3516 58.129-2.9102 14.727-5.0391 29.625-7.5586 44.406-0.83984 5.0391-0.67188 5.6016 4.4805 5.6016h121.02c9.7734-0.46875 19.48 1.8398 28 6.6641 9.5195 6.043 16.234 15.637 18.648 26.656 0.44922 1.7344 1.0078 3.4141 1.5117 5.0977v15.176zm-202.78-30.238c4.3711-25.93 8.793-51.301 12.828-76.668 1.9492-8.9727 2.793-18.148 2.5195-27.328-2.2383-24.473-12.098-46.762-21.84-68.992-1.8672-5.6914-6.6289-9.9609-12.488-11.199-9.3047-2.8008-19.328-1.9219-28 2.4648-4.0469 1.6953-6.5195 5.8242-6.1055 10.191 0.74609 20.383 1.1211 40.77 1.1211 61.152 0.039062 4.8633-0.77734 9.6953-2.4102 14.281-2.1797 5.8477-4.918 11.473-8.1758 16.797-16.801 27.496-33.602 55.105-50.848 82.266-7.4805 13.238-17.742 24.699-30.07 33.602-7.9531 5.1523-15.961 10.414-23.688 15.848-1.6953 1.2188-2.8086 3.082-3.082 5.1523v166.1c0 3.3047 1.3984 3.6406 4.2578 3.9766v-0.003906c5.3984 0.5625 10.727 1.6719 15.902 3.3047 3.5547 1.5508 6.8867 3.5664 9.9141 5.9922 8.4102 5.7227 18.383 8.7148 28.559 8.5664h210.79c4.1719 0.03125 8.3438-0.21094 12.488-0.72656 10.359-1.0664 19.773-6.5078 25.871-14.953 7.5039-10.305 8.457-22.68 1.457-31.473-3.9102-3.7695-8.25-7.0586-12.938-9.8008 0.82812-1.582 2.0664-2.918 3.582-3.8633 6.1758-1.5312 11.84-4.6602 16.418-9.0742 4.582-4.4141 7.9219-9.957 9.6797-16.07 1.7539-4.5352 2.0039-9.5117 0.71484-14.203-1.2891-4.6875-4.0547-8.8359-7.8828-11.836-3.9961-2.6133-8.1914-4.918-12.543-6.8867 1.2891-1.9492 2.9922-3.5938 4.9844-4.8164 8.8086-2.0703 16.449-7.5234 21.277-15.176 10.809-16.406 6.7773-33.602-11.199-39.984-1.375-0.51563-2.4453-1.6289-2.9102-3.0234-0.14453-1.1094 0.17188-2.2305 0.86719-3.1055 0.69531-0.875 1.7148-1.4297 2.8281-1.543 7.0156-1.6367 13.352-5.4062 18.137-10.789 4.7812-5.3867 7.7773-12.125 8.5742-19.281 1.2891-5.0547 0.77344-10.395-1.457-15.105-2.2266-4.7148-6.0312-8.5-10.75-10.711-4.9492-1.9766-10.238-2.9648-15.566-2.9141h-145.15-5.6016zm-191.12 37.293c-1.793 0-3.1367-0.28125-4.4258-0.28125h-132.61 0.003907c-1.3555-0.38281-2.8125 0-3.8047 1-0.99219 1.0039-1.3555 2.4648-0.95703 3.8164v215.21c-0.41406 1.4766-0.007813 3.0625 1.0703 4.1523 1.0781 1.0859 2.6602 1.5156 4.1367 1.1133h130.82c5.6016 0 5.6016 0 5.6016-5.8789v-213.86-5.0391z"/>
  <use x="70" y="644" xlink:href="#t"/>
  <use x="90.550781" y="644" xlink:href="#d"/>
  <use x="104.359375" y="644" xlink:href="#a"/>
  <use x="123.347656" y="644" xlink:href="#k"/>
  <use x="142.242188" y="644" xlink:href="#c"/>
  <use x="155.628906" y="644" xlink:href="#a"/>
  <use x="174.617188" y="644" xlink:href="#j"/>
  <use x="204.410156" y="644" xlink:href="#i"/>
  <use x="224.453125" y="644" xlink:href="#h"/>
  <use x="252.453125" y="644" xlink:href="#g"/>
  <use x="271.796875" y="644" xlink:href="#f"/>
  <use x="288.394531" y="644" xlink:href="#b"/>
  <use x="307.632812" y="644" xlink:href="#e"/>
  <use x="327.5625" y="644" xlink:href="#s"/>
  <use x="70" y="672" xlink:href="#r"/>
  <use x="82.183594" y="672" xlink:href="#d"/>
  <use x="95.992188" y="672" xlink:href="#b"/>
  <use x="115.226562" y="672" xlink:href="#q"/>
  <use x="154.152344" y="672" xlink:href="#c"/>
  <use x="167.535156" y="672" xlink:href="#p"/>
  <use x="187.46875" y="672" xlink:href="#a"/>
  <use x="216.207031" y="672" xlink:href="#o"/>
  <use x="239.640625" y="672" xlink:href="#b"/>
  <use x="258.878906" y="672" xlink:href="#n"/>
  <use x="278.8125" y="672" xlink:href="#e"/>
  <use x="308.492188" y="672" xlink:href="#m"/>
  <use x="329.015625" y="672" xlink:href="#d"/>
  <use x="342.820312" y="672" xlink:href="#b"/>
  <use x="362.058594" y="672" xlink:href="#l"/>
  <use x="371.65625" y="672" xlink:href="#a"/>
  <use x="390.648438" y="672" xlink:href="#f"/>
  <use x="407.242188" y="672" xlink:href="#c"/>
 </g>
</svg>
